<svg xmlns="http://www.w3.org/2000/svg" xmlns:xlink="http://www.w3.org/1999/xlink" width="335" height="353" viewBox="0 0 335 353">
  <defs>
    <filter id="Union_1" x="0" y="0" width="335" height="353" filterUnits="userSpaceOnUse">
      <feOffset dx="9" dy="9" input="SourceAlpha"/>
      <feGaussianBlur result="blur"/>
      <feFlood flood-color="#6c757d" flood-opacity="0.502"/>
      <feComposite operator="in" in2="blur"/>
      <feComposite in="SourceGraphic"/>
    </filter>
  </defs>
  <g id="Group_109" data-name="Group 109" transform="translate(-101 -1220)">
    <g transform="matrix(1, 0, 0, 1, 101, 1220)" filter="url(#Union_1)">
      <g id="Union_1-2" data-name="Union 1" transform="translate(3 -75)" fill="#fff">
        <path d="M 307.9998474121094 417.4998474121094 L 11.99969863891602 417.4998474121094 C 8.39397144317627 417.4998474121094 5.004016399383545 416.095703125 2.454198360443115 413.5460205078125 C -0.09566526859998703 410.9962463378906 -1.499983429908752 407.6061096191406 -1.499983429908752 404.0000915527344 L -1.499983429908752 260.0000915527344 C -1.499983429908752 256.3941040039062 -0.09566526859998703 253.0040130615234 2.454198360443115 250.4542388916016 C 5.004016399383545 247.9045562744141 8.39397144317627 246.5004272460938 11.99969863891602 246.5004272460938 L 28.49969863891602 246.5004272460938 L 28.49969863891602 90.00001525878906 C 28.49969863891602 86.39396667480469 29.90406227111816 83.00382995605469 32.45406341552734 80.45410919189453 C 35.00392532348633 77.90442657470703 38.39419937133789 76.50028991699219 42.00028991699219 76.50028991699219 L 278.0001220703125 76.50028991699219 C 281.606201171875 76.50028991699219 284.996337890625 77.90447235107422 287.5460205078125 80.45415496826172 C 290.0956420898438 83.00382995605469 291.4998474121094 86.3939208984375 291.4998474121094 90.00001525878906 L 291.4998474121094 246.5004272460938 L 307.9998474121094 246.5004272460938 C 311.6059265136719 246.5004272460938 314.9961547851562 247.9045562744141 317.5460510253906 250.4541931152344 C 320.0960693359375 253.0039215087891 321.5003662109375 256.3940734863281 321.5003662109375 260.0000915527344 L 321.5003662109375 404.0000915527344 C 321.5003662109375 407.6061401367188 320.0960693359375 410.996337890625 317.5460510253906 413.5460510253906 C 314.9961853027344 416.095703125 311.6059265136719 417.4998474121094 307.9998474121094 417.4998474121094 Z" stroke="none"/>
        <path d="M 307.9998474121094 415.9998474121094 C 314.6274108886719 415.9998474121094 320.0003662109375 410.6277465820312 320.0003662109375 404.0000915527344 L 320.0003662109375 260.0000915527344 C 320.0003662109375 253.3725128173828 314.6274108886719 248.0004272460938 307.9998474121094 248.0004272460938 L 11.99969863891602 248.0004272460938 C 5.373016357421875 248.0004272460938 1.654607513046358e-05 253.3725128173828 1.654607513046358e-05 260.0000915527344 L 1.654607513046358e-05 404.0000915527344 C 1.654607513046358e-05 410.6277465820312 5.373016357421875 415.9998474121094 11.99969863891602 415.9998474121094 L 307.9998474121094 415.9998474121094 M 289.9998474121094 248.0004272460938 L 289.9998474121094 90.00001525878906 C 289.9998474121094 83.37242126464844 284.6277465820312 78.00028991699219 278.0001220703125 78.00028991699219 L 42.00028991699219 78.00028991699219 C 35.37269973754883 78.00028991699219 29.99969863891602 83.37242126464844 29.99969863891602 90.00001525878906 L 29.99969863891602 248.0004272460938 L 289.9998474121094 248.0004272460938 M 307.9998474121094 418.9998474121094 L 11.99969863891602 418.9998474121094 C 9.976198196411133 418.9998474121094 8.01160717010498 418.6028442382812 6.160470962524414 417.8199157714844 C 4.373970985412598 417.0643005371094 2.770198345184326 415.9832458496094 1.393561959266663 414.606689453125 C 0.0169256366789341 413.2301635742188 -1.064210772514343 411.6263427734375 -1.819892525672913 409.8397827148438 C -2.602937936782837 407.9886169433594 -2.999983549118042 406.0238342285156 -2.999983549118042 404.0000915527344 L -2.999983549118042 260.0000915527344 C -2.999983549118042 257.9763793945312 -2.602937936782837 256.0116577148438 -1.819892525672913 254.1604309082031 C -1.064210772514343 252.3739318847656 0.0169256366789341 250.7701110839844 1.393607497215271 249.3935546875 C 2.770198345184326 248.0170135498047 4.374016761779785 246.9359283447266 6.160470962524414 246.1803283691406 C 8.01160717010498 245.3974304199219 9.976198196411133 245.0004272460938 11.99969863891602 245.0004272460938 L 26.99969863891602 245.0004272460938 L 26.99969863891602 90.00001525878906 C 26.99969863891602 87.97628784179688 27.39674377441406 86.01151275634766 28.17978858947754 84.16028594970703 C 28.93551635742188 82.37378692626953 30.01674461364746 80.76997375488281 31.39342498779297 79.39337921142578 C 32.77010726928711 78.01683044433594 34.37401580810547 76.935791015625 36.16065216064453 76.18019866943359 C 38.01187896728516 75.39723968505859 39.97660827636719 75.00028991699219 42.00028991699219 75.00028991699219 L 278.0001220703125 75.00028991699219 C 280.0238037109375 75.00028991699219 281.988525390625 75.39728546142578 283.8396911621094 76.18019866943359 C 285.6262512207031 76.93583679199219 287.2301025390625 78.01692199707031 288.6066589355469 79.39347076416016 C 289.9832458496094 80.77005767822266 291.0643310546875 82.37387847900391 291.8199157714844 84.16042327880859 C 292.6028442382812 86.01160430908203 292.9998474121094 87.97633361816406 292.9998474121094 90.00001525878906 L 292.9998474121094 245.0004272460938 L 307.9998474121094 245.0004272460938 C 310.0235290527344 245.0004272460938 311.9882507324219 245.3973846435547 313.8394775390625 246.1802825927734 C 315.6260986328125 246.9358825683594 317.2300109863281 248.0169677734375 318.6066589355469 249.3935089111328 C 319.9833679199219 250.7700653076172 321.0645751953125 252.3738861083984 321.8202819824219 254.1604309082031 C 322.6033325195312 256.0115966796875 323.0003662109375 257.9763793945312 323.0003662109375 260.0000915527344 L 323.0003662109375 404.0000915527344 C 323.0003662109375 406.0238342285156 322.6033325195312 407.9886169433594 321.8202819824219 409.83984375 C 321.0646057128906 411.6263732910156 319.9833679199219 413.2301940917969 318.6066589355469 414.6067504882812 C 317.2300109863281 415.9832763671875 315.6260986328125 417.0643920898438 313.8394775390625 417.8199768066406 C 311.9882507324219 418.6028747558594 310.0235290527344 418.9998474121094 307.9998474121094 418.9998474121094 Z" stroke="none" fill="#0e4e96"/>
      </g>
    </g>
    <text id="法規疑慮_" data-name="法規疑慮？" transform="translate(104 1408)" font-size="36" font-family="NotoSansCJKtc-Bold, Noto Sans CJK TC" font-weight="700"><tspan x="-90" y="42">法規疑慮？</tspan></text>
    <text id="不懂電子發票法規_擔心操作不當面臨高額罰款_" data-name="不懂電子發票法規，擔心操作不當面臨高額罰款。" transform="translate(142 1475)" font-size="16" font-family="NotoSansCJKtc-Regular, Noto Sans CJK TC"><tspan x="0" y="19">不懂電子發票法規，擔心操作不當</tspan><tspan x="0" y="43">面臨高額罰款。</tspan></text>
    <g id="Rectangle_150" data-name="Rectangle 150" transform="translate(196.5 1257)" fill="#9e9e9e" stroke="#707070" stroke-width="1">
      <rect width="135" height="135" stroke="none"/>
      <rect x="0.5" y="0.5" width="134" height="134" fill="none"/>
    </g>
  </g>
</svg>
